<svg id="visual" viewBox="0 0 900 600" width="900" height="600" xmlns="http://www.w3.org/2000/svg" xmlns:xlink="http://www.w3.org/1999/xlink" version="1.1"><rect x="0" y="0" width="900" height="600" fill="#020617"></rect><path d="M0 378L21.5 389C43 400 86 422 128.8 432.3C171.7 442.7 214.3 441.3 257.2 426.7C300 412 343 384 385.8 375.7C428.7 367.3 471.3 378.7 514.2 385.3C557 392 600 394 642.8 402.2C685.7 410.3 728.3 424.7 771.2 423.3C814 422 857 405 878.5 396.5L900 388L900 601L878.5 601C857 601 814 601 771.2 601C728.3 601 685.7 601 642.8 601C600 601 557 601 514.2 601C471.3 601 428.7 601 385.8 601C343 601 300 601 257.2 601C214.3 601 171.7 601 128.8 601C86 601 43 601 21.5 601L0 601Z" fill="#a855f7"></path><path d="M0 421L21.5 426.2C43 431.3 86 441.7 128.8 444.7C171.7 447.7 214.3 443.3 257.2 440.5C300 437.7 343 436.3 385.8 440C428.7 443.7 471.3 452.3 514.2 454.2C557 456 600 451 642.8 447.2C685.7 443.3 728.3 440.7 771.2 433.5C814 426.3 857 414.7 878.5 408.8L900 403L900 601L878.5 601C857 601 814 601 771.2 601C728.3 601 685.7 601 642.8 601C600 601 557 601 514.2 601C471.3 601 428.7 601 385.8 601C343 601 300 601 257.2 601C214.3 601 171.7 601 128.8 601C86 601 43 601 21.5 601L0 601Z" fill="#a34df4"></path><path d="M0 470L21.5 475.5C43 481 86 492 128.8 494.7C171.7 497.3 214.3 491.7 257.2 489C300 486.3 343 486.7 385.8 481.3C428.7 476 471.3 465 514.2 462C557 459 600 464 642.8 468C685.7 472 728.3 475 771.2 481.8C814 488.7 857 499.3 878.5 504.7L900 510L900 601L878.5 601C857 601 814 601 771.2 601C728.3 601 685.7 601 642.8 601C600 601 557 601 514.2 601C471.3 601 428.7 601 385.8 601C343 601 300 601 257.2 601C214.3 601 171.7 601 128.8 601C86 601 43 601 21.5 601L0 601Z" fill="#9d45f1"></path><path d="M0 499L21.5 499.5C43 500 86 501 128.8 501.2C171.7 501.3 214.3 500.7 257.2 500C300 499.3 343 498.7 385.8 504.2C428.7 509.7 471.3 521.3 514.2 519.5C557 517.7 600 502.3 642.8 496.3C685.7 490.3 728.3 493.7 771.2 498.8C814 504 857 511 878.5 514.5L900 518L900 601L878.5 601C857 601 814 601 771.2 601C728.3 601 685.7 601 642.8 601C600 601 557 601 514.2 601C471.3 601 428.7 601 385.8 601C343 601 300 601 257.2 601C214.3 601 171.7 601 128.8 601C86 601 43 601 21.5 601L0 601Z" fill="#983dee"></path><path d="M0 526L21.5 532.2C43 538.3 86 550.7 128.8 553.3C171.7 556 214.3 549 257.2 542.5C300 536 343 530 385.8 529.5C428.7 529 471.3 534 514.2 540.8C557 547.7 600 556.3 642.8 558.7C685.7 561 728.3 557 771.2 552.5C814 548 857 543 878.5 540.5L900 538L900 601L878.5 601C857 601 814 601 771.2 601C728.3 601 685.7 601 642.8 601C600 601 557 601 514.2 601C471.3 601 428.7 601 385.8 601C343 601 300 601 257.2 601C214.3 601 171.7 601 128.8 601C86 601 43 601 21.5 601L0 601Z" fill="#9234ea"></path></svg>